<?xml version="1.0" encoding="UTF-8"?>
<svg width="18px" height="12px" viewBox="0 0 18 12" version="1.1" xmlns="http://www.w3.org/2000/svg" xmlns:xlink="http://www.w3.org/1999/xlink">
    <!-- Generator: Sketch 55.1 (78136) - https://sketchapp.com -->
    <title>arrow right</title>
    <desc>Created with Sketch.</desc>
    <g id="Page-1" stroke="none" stroke-width="1" fill="none" fill-rule="evenodd">
        <g id="status" transform="translate(-1426.000000, -936.000000)" fill="#000000" fill-rule="nonzero">
            <g id="02" transform="translate(0.000000, 771.000000)">
                <g id="11" transform="translate(375.000000, 128.000000)">
                    <g id="Group" transform="translate(0.000000, 13.000000)">
                        <g id="&lt;" transform="translate(1030.000000, 0.000000)">
                            <g id="arrow-right" transform="translate(21.000000, 24.000000)">
                                <path d="M0.152201183,5.57598075 L5.99059172,0.125308025 C6.15280473,-0.0096374295 6.33014201,-0.0356010659 6.52276331,0.0474716614 C6.7151716,0.13065348 6.81177515,0.281089843 6.81177515,0.499217116 L6.81177515,3.98761712 L17.4791716,3.98761712 C17.6211479,3.98761712 17.7377751,4.03425348 17.8288935,4.12768984 C17.9199586,4.22107166 17.9657041,4.34052621 17.9657041,4.4858353 L17.9657041,7.47579893 C17.9657041,7.62105348 17.9201716,7.74050803 17.8289467,7.83378075 C17.7376154,7.92716257 17.6209882,7.97379893 17.4792249,7.97379893 L6.81166864,7.97379893 L6.81166864,11.4621444 C6.81166864,11.6700717 6.71490533,11.820508 6.52260355,11.9136717 C6.32982249,11.9970717 6.15248521,11.9655444 5.99027219,11.820508 L0.151881657,6.30721712 C0.0505384615,6.20347166 0,6.07910803 0,5.9336353 C0,5.79901712 0.0508579882,5.67978075 0.152201183,5.57598075 Z" id="Path"></path>
                            </g>
                        </g>
                    </g>
                </g>
            </g>
        </g>
    </g>
</svg>