<?xml version="1.0" encoding="UTF-8"?>
<svg width="32px" height="32px" viewBox="0 0 32 32" version="1.1" xmlns="http://www.w3.org/2000/svg" xmlns:xlink="http://www.w3.org/1999/xlink">
    <!-- Generator: Sketch 55.1 (78136) - https://sketchapp.com -->
    <title>wallet</title>
    <desc>Created with Sketch.</desc>
    <g id="Page-1" stroke="none" stroke-width="1" fill="none" fill-rule="evenodd">
        <g id="status" transform="translate(-1245.000000, -3260.000000)" fill="#000000" fill-rule="nonzero">
            <g id="03-v2" transform="translate(0.000000, 2894.000000)">
                <g id="icon" transform="translate(1013.000000, 352.000000)">
                    <g id="2" transform="translate(193.000000, 0.000000)">
                        <g id="wallet" transform="translate(39.000000, 14.000000)">
                            <path d="M25.3125,16.0313138 C23.24475,16.0313138 21.5625,17.7102846 21.5625,19.7740039 C21.5625,21.8377232 23.24475,23.516694 25.3125,23.516694 L30.625,23.516694 C30.6461875,23.516694 30.666875,23.5145731 30.6878125,23.5135127 C30.7085625,23.5145107 30.729,23.5166316 30.75,23.5166316 C31.440375,23.5166316 32,22.9580975 32,22.2690682 L32,12.4756959 C32,10.8148148 31.1820625,9.34175439 29.9278125,8.43421442 L25.6753125,1.47156335 C25.5019375,1.18761793 25.222125,0.98451462 24.898,0.907415205 C24.573875,0.830191033 24.232375,0.885395712 23.9491875,1.06067836 L20.813125,3.00163743 L19.398875,0.612927875 C19.2288125,0.325738791 18.9506875,0.118518519 18.6265,0.0374269006 C18.302375,-0.0436647173 17.9590625,0.0082962963 17.6735,0.18145809 L5.6318125,7.4854425 L3.75,7.4854425 C3.0711875,7.4854425 2.517,6.94262768 2.500375,6.26906823 C2.517,5.59550877 3.0711875,5.05269396 3.75,5.05269396 L6.0625,5.05269396 C6.752875,5.05269396 7.3125,4.49415984 7.3125,3.8051306 C7.3125,3.11610136 6.752875,2.55756725 6.0625,2.55756725 L3.75,2.55756725 C1.981375,2.55756725 0.4949375,3.78604288 0.101875,5.43288889 C0.0365,5.58421832 0,5.75076803 0,5.9259883 L0,6.23787914 L0,6.30025731 L0,26.9474308 C0,29.6990565 2.243,31.9376842 5,31.9376842 L27,31.9376842 C29.155625,31.9376842 31.0620625,30.5671735 31.7438125,28.5274074 C31.9623125,27.873809 31.6085,27.1671891 30.953625,26.9491774 C30.2988125,26.7311657 29.59075,27.0842261 29.3723125,27.7378246 C29.0315,28.7574581 28.0781875,29.4425575 27,29.4425575 L5,29.4425575 C3.6215,29.4425575 2.5,28.3232437 2.5,26.9474308 L2.5,9.76654971 C2.8911875,9.90502924 3.311875,9.9805692 3.75,9.9805692 L27,9.9805692 C28.3785,9.9805692 29.5,11.099883 29.5,12.4756959 L29.5,16.0313138 L25.3125,16.0313138 Z M29.5,21.0215049 L25.3125,21.0215049 C24.62325,21.0215673 24.0625,20.4619103 24.0625,19.7739415 C24.0625,19.0860351 24.62325,18.5263782 25.3125,18.5263782 L29.5,18.5263782 L29.5,21.0215049 Z M10.4455,7.48550487 L17.8904375,2.96976218 L19.2215,5.21793372 C19.2470625,5.27937622 19.2764375,5.33994542 19.3126875,5.39833138 C19.339875,5.44205848 19.37,5.48279142 19.4014375,5.52196491 L20.5639375,7.48550487 L10.4455,7.48550487 Z M23.4678125,7.4854425 L22.08525,5.15025341 L24.19625,3.84374269 L26.4205,7.4854425 L23.4678125,7.4854425 Z" id="Shape"></path>
                        </g>
                    </g>
                </g>
            </g>
        </g>
    </g>
</svg>