<?xml version="1.0" encoding="UTF-8"?>
<svg width="32px" height="31px" viewBox="0 0 32 31" version="1.1" xmlns="http://www.w3.org/2000/svg" xmlns:xlink="http://www.w3.org/1999/xlink">
    <!-- Generator: Sketch 55.1 (78136) - https://sketchapp.com -->
    <title>deliv54ered</title>
    <desc>Created with Sketch.</desc>
    <g id="Page-1" stroke="none" stroke-width="1" fill="none" fill-rule="evenodd">
        <g id="status" transform="translate(-1044.000000, -3260.000000)" fill="#000000" fill-rule="nonzero">
            <g id="03-v2" transform="translate(0.000000, 2894.000000)">
                <g id="icon" transform="translate(1013.000000, 352.000000)">
                    <g id="1">
                        <g id="deliv54ered" transform="translate(31.000000, 14.000000)">
                            <path d="M28.1755371,17.8266244 L27.4599609,14.1556624 C27.263916,13.125135 26.9255371,12.3382717 26.4260254,11.750524 C25.7817383,10.9924575 24.8781738,10.5917651 23.8125,10.5917651 L20.875,10.5917651 L20.875,5.54471545 C20.875,4.84891862 20.3154297,4.28455285 19.625,4.28455285 L16.875,4.28455285 C16.1845703,4.28455285 15.625,4.84891862 15.625,5.54471545 C15.625,6.24075838 16.1845703,6.80487805 16.875,6.80487805 L18.375,6.80487805 L18.375,17.7746919 L6.25,17.7746919 C5.55957031,17.7746919 5,18.3388116 5,19.0348545 C5,19.7308975 5.55957031,20.2886179 6.25,20.2886179 L27.3657226,20.2886179 C28.5478516,20.4249714 29.5,21.398644 29.5,22.6263179 L29.5,25.9027407 L26.7849121,25.9027407 C26.269043,24.4360788 24.8796387,23.3824155 23.25,23.3824155 C21.6203613,23.3824155 20.230957,24.4360788 19.7150879,25.9027407 L11.9724121,25.9027407 C11.456543,24.4360788 10.0671387,23.3824155 8.4375,23.3824155 C6.80883788,23.3824155 5.420166,24.4348482 4.90332031,25.9002795 C3.56958006,25.8488393 2.5,24.7393055 2.5,23.3824155 L2.5,12.4126016 C2.5,11.7168048 1.94042969,11.152439 1.25,11.152439 C0.559570313,11.152439 2.84217094e-14,11.7168048 2.84217094e-14,12.4126016 L2.84217094e-14,23.3824155 C2.84217094e-14,26.1286839 2.18994138,28.3674416 4.90161131,28.4206047 C5.41699219,29.8887433 6.80712888,30.9433911 8.4375,30.9433911 C10.0671387,30.9433911 11.456543,29.8897278 11.9724121,28.4230659 L19.7150879,28.4230659 C20.230957,29.8897278 21.6203613,30.9433911 23.25,30.9433911 C24.8796387,30.9433911 26.269043,29.8897278 26.7849121,28.4230659 L30.75,28.4230659 C31.4404297,28.4230659 32,27.8589463 32,27.1629033 L32,22.6263179 C32,20.2800035 30.3603516,18.31223 28.1755371,17.8266244 Z M20.875,13.1120903 L23.8125,13.1120903 C24.1940918,13.1120903 24.7165528,13.1120903 25.0051269,14.6328998 C25.0053711,14.6348688 25.0058594,14.6368378 25.0063476,14.639053 L25.6176758,17.7746919 L20.875,17.7746919 L20.875,13.1120903 Z M8.4375,28.4230659 C7.748291,28.4230659 7.1875,27.8577156 7.1875,27.1629033 C7.1875,26.468091 7.748291,25.9027407 8.4375,25.9027407 C9.126709,25.9027407 9.6875,26.468091 9.6875,27.1629033 C9.6875,27.8577156 9.126709,28.4230659 8.4375,28.4230659 Z M23.25,28.4230659 C22.560791,28.4230659 22,27.8577156 22,27.1629033 C22,26.468091 22.560791,25.9027407 23.25,25.9027407 C23.939209,25.9027407 24.5,26.468091 24.5,27.1629033 C24.5,27.8577156 23.939209,28.4230659 23.25,28.4230659 Z M0.38671875,7.21344639 C-0.111328125,6.73128651 -0.12719725,5.93359375 0.350830063,5.43174382 C0.828857438,4.92964779 1.62011719,4.91340353 2.11816406,5.39556336 L6.10693363,9.25678033 C6.30078125,9.4426051 6.52636719,9.45786492 6.64257813,9.44974273 C6.75561525,9.44211288 6.96655275,9.39953319 7.13476563,9.20287889 L13.2961426,0.526708587 C13.6979981,-0.0391339715 14.4787598,-0.169580459 15.0400391,0.235542096 C15.6013184,0.640664713 15.7307129,1.42802017 15.3288574,1.99386273 L9.14257813,10.705229 C9.12890625,10.7244267 9.11499025,10.7428862 9.10058594,10.7610994 C8.53881838,11.4657568 7.70361325,11.9043525 6.80883788,11.9644071 C6.73803713,11.9693296 6.6674805,11.9715447 6.59692381,11.9715447 C5.77563475,11.9715447 4.97729494,11.6523199 4.3793945,11.0783553 L0.38671875,7.21344639 Z" id="Shape"></path>
                        </g>
                    </g>
                </g>
            </g>
        </g>
    </g>
</svg>