<?xml version="1.0" encoding="UTF-8"?>
<svg width="32px" height="32px" viewBox="0 0 32 32" version="1.1" xmlns="http://www.w3.org/2000/svg" xmlns:xlink="http://www.w3.org/1999/xlink">
    <!-- Generator: Sketch 55.1 (78136) - https://sketchapp.com -->
    <title>calendar</title>
    <desc>Created with Sketch.</desc>
    <g id="Page-1" stroke="none" stroke-width="1" fill="none" fill-rule="evenodd">
        <g id="status" transform="translate(-1445.000000, -3260.000000)" fill="#000000" fill-rule="nonzero">
            <g id="03-v2" transform="translate(0.000000, 2894.000000)">
                <g id="icon" transform="translate(1013.000000, 352.000000)">
                    <g id="3" transform="translate(386.000000, 0.000000)">
                        <g id="calendar" transform="translate(46.000000, 14.000000)">
                            <ellipse id="Oval" cx="18.6510721" cy="13.125" rx="1.24756335" ry="1.25"></ellipse>
                            <ellipse id="Oval" cx="18.6510721" cy="18.5625" rx="1.24756335" ry="1.25"></ellipse>
                            <ellipse id="Oval" cx="24.0779727" cy="13.125" rx="1.24756335" ry="1.25"></ellipse>
                            <path d="M30.6900585,15.625 C31.3790877,15.625 31.9376706,15.065375 31.9376706,14.375 L31.9376706,7.5 C31.9376706,4.743 29.6989942,2.5 26.9473684,2.5 L25.3255361,2.5 L25.3255361,1.25 C25.3255361,0.559625 24.7670019,0 24.0779727,0 C23.3889435,0 22.8304094,0.559625 22.8304094,1.25 L22.8304094,2.5 L17.1539961,2.5 L17.1539961,1.25 C17.1539961,0.559625 16.595462,0 15.9064327,0 C15.2174035,0 14.6588694,0.559625 14.6588694,1.25 L14.6588694,2.5 L9.04483431,2.5 L9.04483431,1.25 C9.04483431,0.559625 8.48630019,0 7.79727096,0 C7.10824172,0 6.5497076,0.559625 6.5497076,1.25 L6.5497076,2.5 L4.99025341,2.5 C2.23862768,2.5 0,4.743 0,7.5 L0,27 C0,29.757 2.23862768,32 4.99025341,32 L20.7095517,32 C20.7520312,32 20.7940117,31.9978125 20.8353684,31.993625 C20.8764756,31.9976875 20.9176452,32 20.9587524,32 C21.2914152,32 21.6178402,31.866625 21.8576842,31.6170625 L31.5886784,21.4920625 C31.9357505,21.1309375 32.0339337,20.597 31.8381287,20.13575 C31.6423236,19.6745 31.1903938,19.375 30.6900585,19.375 L24.7017544,19.375 C21.9501287,19.375 19.711501,21.618 19.711501,24.375 L19.711501,29.5 L4.99025341,29.5 C3.61444055,29.5 2.49512671,28.3785 2.49512671,27 L2.49512671,7.5 C2.49512671,6.1215 3.61444055,5 4.99025341,5 L6.5497076,5 L6.5497076,6.25 C6.5497076,6.940375 7.10824172,7.5 7.79727096,7.5 C8.48630019,7.5 9.04483431,6.940375 9.04483431,6.25 L9.04483431,5 L14.6588694,5 L14.6588694,6.25 C14.6588694,6.940375 15.2174035,7.5 15.9064327,7.5 C16.595462,7.5 17.1539961,6.940375 17.1539961,6.25 L17.1539961,5 L22.8304094,5 L22.8304094,6.25 C22.8304094,6.940375 23.3889435,7.5 24.0779727,7.5 C24.7670019,7.5 25.3255361,6.940375 25.3255361,6.25 L25.3255361,5 L26.9473684,5 C28.3231813,5 29.4424951,6.1215 29.4424951,7.5 L29.4424951,14.375 C29.4424951,15.065375 30.0010292,15.625 30.6900585,15.625 Z M22.2066277,24.375 C22.2066277,22.9965 23.3259415,21.875 24.7017544,21.875 L27.7567251,21.875 L22.2066277,27.649875 L22.2066277,24.375 Z" id="Shape"></path>
                            <ellipse id="Oval" cx="7.79727096" cy="13.125" rx="1.24756335" ry="1.25"></ellipse>
                            <ellipse id="Oval" cx="13.2241715" cy="18.5625" rx="1.24756335" ry="1.25"></ellipse>
                            <ellipse id="Oval" cx="7.79727096" cy="24" rx="1.24756335" ry="1.25"></ellipse>
                            <ellipse id="Oval" cx="7.79727096" cy="18.5625" rx="1.24756335" ry="1.25"></ellipse>
                            <ellipse id="Oval" cx="13.2241715" cy="24" rx="1.24756335" ry="1.25"></ellipse>
                            <ellipse id="Oval" cx="13.2241715" cy="13.125" rx="1.24756335" ry="1.25"></ellipse>
                        </g>
                    </g>
                </g>
            </g>
        </g>
    </g>
</svg>