<?xml version="1.0" encoding="UTF-8"?>
<svg width="9px" height="20px" viewBox="0 0 9 20" version="1.1" xmlns="http://www.w3.org/2000/svg" xmlns:xlink="http://www.w3.org/1999/xlink">
    <!-- Generator: Sketch 55.1 (78136) - https://sketchapp.com -->
    <title>facebook-logo</title>
    <desc>Created with Sketch.</desc>
    <g id="Page-1" stroke="none" stroke-width="1" fill="none" fill-rule="evenodd">
        <g id="status" transform="translate(-399.000000, -5796.000000)" fill="#FFFFFF" fill-rule="nonzero">
            <g id="footer" transform="translate(0.000000, 5662.000000)">
                <g id="f" transform="translate(375.000000, 115.000000)">
                    <g id="facebook-logo" transform="translate(24.000000, 19.000000)">
                        <path d="M5.99404091,6.54649682 L5.99404091,4.82501062 C5.99404091,4.56658174 6.00549545,4.36641189 6.02877273,4.22501062 C6.05196818,4.08339703 6.10474091,3.9441189 6.18664091,3.8066242 C6.26841818,3.66921444 6.40084091,3.57435244 6.58370455,3.52178344 C6.76681364,3.46912951 7.01014091,3.44288747 7.31393182,3.44288747 L8.97234545,3.44288747 L8.97234545,0 L6.32106818,0 C4.78697727,0 3.68517273,0.377791932 3.01549091,1.1333758 C2.34589091,1.88912951 2.01113182,3.00233546 2.01113182,4.47341826 L2.01113182,6.54645435 L0.0253227273,6.54645435 L0.0253227273,9.9895966 L2.01100909,9.9895966 L2.01100909,19.9792357 L5.994,19.9792357 L5.994,9.98963907 L8.64511364,9.98963907 L8.99554091,6.54649682 L5.99404091,6.54649682 Z" id="Path"></path>
                    </g>
                </g>
            </g>
        </g>
    </g>
</svg>