<?xml version="1.0" encoding="UTF-8"?>
<svg width="20px" height="20px" viewBox="0 0 20 20" version="1.1" xmlns="http://www.w3.org/2000/svg" xmlns:xlink="http://www.w3.org/1999/xlink">
    <!-- Generator: Sketch 55.1 (78136) - https://sketchapp.com -->
    <title>instagram-logo</title>
    <desc>Created with Sketch.</desc>
    <g id="Page-1" stroke="none" stroke-width="1" fill="none" fill-rule="evenodd">
        <g id="status" transform="translate(-462.000000, -5796.000000)" fill="#FFFFFF" fill-rule="nonzero">
            <g id="footer" transform="translate(0.000000, 5662.000000)">
                <g id="insta" transform="translate(443.000000, 115.000000)">
                    <g id="instagram-logo" transform="translate(19.000000, 19.000000)">
                        <path d="M14.4007059,3.67705866e-13 C17.4274118,3.67705866e-13 19.8896471,2.46235294 19.8896471,5.48882353 L19.8896471,14.4008235 C19.8896471,17.4272941 17.4274118,19.8896471 14.4007059,19.8896471 L5.48870588,19.8896471 C2.46223529,19.8896471 2.66453526e-14,17.4274118 2.66453526e-14,14.4008235 L2.66453526e-14,5.48882353 C2.66453526e-14,2.46235294 2.46223529,3.67705866e-13 5.48870588,3.67705866e-13 L14.4007059,3.67705866e-13 Z M18.1250588,14.4008235 L18.1250588,5.48882353 C18.1250588,3.43541176 16.4542353,1.76470588 14.4007059,1.76470588 L5.48870588,1.76470588 C3.43529412,1.76470588 1.76470588,3.43541176 1.76470588,5.48882353 L1.76470588,14.4008235 C1.76470588,16.4543529 3.43529412,18.1249412 5.48870588,18.1249412 L14.4008235,18.1249412 C16.4543529,18.1249412 18.1250588,16.4543529 18.1250588,14.4008235 Z M9.94482353,4.82 C12.7708235,4.82 15.0698824,7.11905882 15.0698824,9.94505882 C15.0698824,12.7709412 12.7708235,15.0698824 9.94482353,15.0698824 C7.11882353,15.0698824 4.81976471,12.7709412 4.81976471,9.94505882 C4.81976471,7.11905882 7.11882353,4.82 9.94482353,4.82 Z M9.94482353,13.3050588 C11.7976471,13.3050588 13.3051765,11.7977647 13.3051765,9.94494118 C13.3051765,8.092 11.7977647,6.58458824 9.94482353,6.58458824 C8.09188235,6.58458824 6.58447059,8.092 6.58447059,9.94494118 C6.58447059,11.7977647 8.092,13.3050588 9.94482353,13.3050588 Z M15.2848235,3.32364706 C15.626,3.32364706 15.9601176,3.46129412 16.2001176,3.70247059 C16.4412941,3.94247059 16.5789412,4.27658824 16.5789412,4.61776471 C16.5789412,4.95776471 16.4412941,5.29188235 16.2001176,5.53305882 C15.9589412,5.77305882 15.626,5.91188235 15.2848235,5.91188235 C14.9448235,5.91188235 14.6107059,5.77305882 14.3707059,5.53305882 C14.1295294,5.29188235 13.9907059,4.95788235 13.9907059,4.61776471 C13.9907059,4.27658824 14.1294118,3.94247059 14.3707059,3.70247059 C14.6108235,3.46129412 14.9448235,3.32364706 15.2848235,3.32364706 Z" id="Combined-Shape"></path>
                    </g>
                </g>
            </g>
        </g>
    </g>
</svg>