<?xml version="1.0" encoding="UTF-8"?>
<svg width="110px" height="30px" viewBox="0 0 110 30" version="1.1" xmlns="http://www.w3.org/2000/svg" xmlns:xlink="http://www.w3.org/1999/xlink">
    <!-- Generator: Sketch 55.1 (78136) - https://sketchapp.com -->
    <title>logo</title>
    <desc>Created with Sketch.</desc>
    <g id="Page-1" stroke="none" stroke-width="1" fill="none" fill-rule="evenodd">
        <g id="status" transform="translate(-375.000000, -40.000000)" fill="#FFFFFF">
            <g id="01">
                <g id="header" transform="translate(375.000000, 40.000000)">
                    <g id="logo">
                        <path d="M1.42108547e-14,23.391 L5.725,22.484 C5.969,23.591 6.462,24.429 7.209,24.996 C7.954,25.571 9,25.853 10.337,25.853 C11.82,25.853 12.933,25.58 13.676,25.034 C14.178,24.647 14.429,24.136 14.429,23.489 C14.429,23.055 14.294,22.692 14.023,22.402 C13.733,22.126 13.097,21.875 12.102,21.64 C7.465,20.615 4.53,19.677 3.289,18.826 C1.572,17.646 0.712,16.006 0.712,13.912 C0.712,12.02 1.456,10.432 2.937,9.142 C4.422,7.856 6.722,7.208 9.841,7.208 C12.808,7.208 15.012,7.698 16.457,8.674 C17.897,9.641 18.893,11.08 19.439,12.983 L14.072,14.009 C13.838,13.153 13.395,12.498 12.743,12.041 C12.092,11.586 11.16,11.36 9.954,11.36 C8.429,11.36 7.337,11.573 6.679,11.998 C6.24,12.3 6.023,12.693 6.023,13.169 C6.023,13.582 6.209,13.932 6.594,14.217 C7.109,14.6 8.9,15.141 11.951,15.844 C15.007,16.543 17.142,17.399 18.356,18.412 C19.554,19.434 20.155,20.865 20.155,22.696 C20.155,24.698 19.325,26.413 17.675,27.852 C16.022,29.288 13.578,30 10.337,30 C7.402,30 5.073,29.412 3.36,28.224 C1.648,27.04 0.524,25.426 1.42108547e-14,23.391 Z M32.823,7.695 L32.823,12.268 L28.948,12.268 L28.948,21.104 C28.948,22.893 28.984,23.936 29.058,24.229 C29.125,24.528 29.294,24.774 29.549,24.966 C29.809,25.158 30.123,25.255 30.493,25.255 C31.005,25.255 31.753,25.067 32.733,24.701 L33.241,29.151 C31.923,29.718 30.432,30 28.767,30 C27.745,30 26.823,29.829 26.006,29.48 C25.184,29.131 24.583,28.679 24.2,28.122 C23.818,27.568 23.553,26.814 23.406,25.868 C23.285,25.191 23.221,23.837 23.221,21.793 L23.221,12.267 L20.599,12.267 L20.599,7.695 L23.221,7.695 L23.221,3.364 L28.948,0 L28.948,7.695 L32.823,7.695 Z M47.562,20.163 C47.562,21.56 47.49,22.506 47.339,23.008 C47.123,23.77 46.668,24.413 45.981,24.937 C45.047,25.626 44.063,25.976 43.037,25.976 C42.116,25.976 41.356,25.677 40.762,25.081 C40.169,24.49 39.868,23.783 39.868,22.969 C39.868,22.135 40.241,21.449 40.985,20.912 C41.473,20.576 42.508,20.234 44.09,19.894 C45.67,19.549 46.833,19.251 47.561,18.999 L47.561,20.163 L47.562,20.163 Z M41.262,12.213 C41.83,11.804 42.631,11.604 43.655,11.604 C45.168,11.604 46.195,11.838 46.744,12.312 C47.289,12.788 47.561,13.585 47.561,14.692 L47.561,15.271 C46.531,15.709 44.683,16.183 42.011,16.689 C40.032,17.072 38.515,17.52 37.468,18.035 C36.418,18.55 35.602,19.287 35.019,20.253 C34.437,21.224 34.145,22.322 34.145,23.553 C34.145,25.414 34.786,26.956 36.067,28.174 C37.349,29.395 39.099,30 41.317,30 C42.581,30 43.765,29.766 44.873,29.288 C45.987,28.811 47.029,28.091 48.003,27.137 C48.044,27.244 48.113,27.465 48.206,27.798 C48.425,28.534 48.607,29.088 48.754,29.463 L54.419,29.463 C53.915,28.424 53.566,27.453 53.386,26.542 C53.2,25.634 53.11,24.226 53.11,22.313 L53.169,15.594 C53.169,13.095 52.917,11.374 52.407,10.441 C51.899,9.505 51.021,8.734 49.774,8.125 C48.527,7.516 46.634,7.209 44.089,7.209 C41.286,7.209 39.17,7.721 37.751,8.73 C36.331,9.743 35.328,11.302 34.744,13.406 L39.87,14.373 C40.222,13.34 40.689,12.626 41.262,12.213 L41.262,12.213 Z M66.433,7.695 L66.433,12.268 L62.557,12.268 L62.557,21.104 C62.557,22.893 62.593,23.936 62.666,24.229 C62.738,24.528 62.904,24.774 63.16,24.966 C63.417,25.158 63.732,25.255 64.104,25.255 C64.62,25.255 65.366,25.067 66.344,24.701 L66.851,29.151 C65.533,29.718 64.041,30 62.377,30 C61.353,30 60.433,29.829 59.614,29.48 C58.793,29.131 58.191,28.679 57.808,28.122 C57.428,27.568 57.161,26.814 57.011,25.868 C56.894,25.191 56.834,23.837 56.834,21.793 L56.834,12.267 L54.21,12.267 L54.21,7.695 L56.834,7.695 L56.834,3.364 L62.557,0 L62.557,7.695 L66.433,7.695 L66.433,7.695 Z M82.956,29.463 L82.956,26.21 C82.1659247,27.3727368 81.1020135,28.3233198 79.858,28.978 C78.6150021,29.6508962 77.2234455,30.0022229 75.81,30.0000105 C74.361,30.0000105 73.064,29.68 71.915,29.037 C70.762,28.394 69.931,27.491 69.416,26.328 C68.903,25.162 68.644,23.552 68.644,21.495 L68.644,7.695 L74.368,7.695 L74.368,17.723 C74.368,20.793 74.473,22.675 74.68,23.366 C74.89,24.057 75.272,24.605 75.826,25.009 C76.377,25.414 77.081,25.614 77.928,25.614 C78.899,25.614 79.768,25.346 80.538,24.801 C81.306,24.261 81.83,23.592 82.114,22.787 C82.397,21.986 82.538,20.028 82.538,16.898 L82.538,7.695 L88.263,7.695 L88.263,29.463 L82.956,29.463 L82.956,29.463 Z M89.845,23.391 L95.57,22.484 C95.815,23.591 96.31,24.429 97.053,24.996 C97.8,25.571 98.846,25.853 100.188,25.853 C101.664,25.853 102.778,25.58 103.524,25.034 C104.024,24.647 104.278,24.136 104.278,23.489 C104.278,23.055 104.14,22.692 103.867,22.402 C103.58,22.126 102.942,21.875 101.949,21.64 C97.316,20.615 94.379,19.677 93.137,18.826 C91.419,17.646 90.562,16.006 90.562,13.912 C90.562,12.02 91.302,10.432 92.787,9.142 C94.267,7.856 96.571,7.208 99.689,7.208 C102.654,7.208 104.86,7.698 106.304,8.674 C107.745,9.641 108.739,11.08 109.288,12.983 L103.92,14.009 C103.683,13.153 103.246,12.498 102.587,12.041 C101.938,11.586 101.01,11.36 99.803,11.36 C98.277,11.36 97.187,11.573 96.528,11.998 C96.09,12.3 95.871,12.693 95.871,13.169 C95.871,13.582 96.06,13.932 96.445,14.217 C96.957,14.6 98.744,15.141 101.802,15.844 C104.857,16.543 106.99,17.399 108.204,18.412 C109.402,19.434 110,20.865 110,22.696 C110,24.698 109.179,26.413 107.52,27.852 C105.867,29.287 103.425,29.999 100.188,29.999 C97.251,29.999 94.924,29.411 93.21,28.223 C91.496,27.04 90.375,25.426 89.845,23.391 L89.845,23.391 Z" id="Shape"></path>
                    </g>
                </g>
            </g>
        </g>
    </g>
</svg>