<?xml version="1.0" encoding="UTF-8"?>
<svg width="18px" height="16px" viewBox="0 0 18 16" version="1.1" xmlns="http://www.w3.org/2000/svg" xmlns:xlink="http://www.w3.org/1999/xlink">
    <!-- Generator: Sketch 55.1 (78136) - https://sketchapp.com -->
    <title>telegram</title>
    <desc>Created with Sketch.</desc>
    <g id="Page-1" stroke="none" stroke-width="1" fill="none" fill-rule="evenodd">
        <g id="status" transform="translate(-998.000000, -5844.000000)" fill="#FFFFFF" fill-rule="nonzero">
            <g id="footer" transform="translate(0.000000, 5662.000000)">
                <g id="sub" transform="translate(798.000000, 50.000000)">
                    <g id="btn" transform="translate(62.000000, 110.000000)">
                        <g id="Group-2" transform="translate(44.000000, 17.000000)">
                            <g id="telegram" transform="translate(94.000000, 5.000000)">
                                <path d="M0.31794,7.6729771 L4.4655,9.24854962 L6.07086,14.5033282 C6.17358,14.8398779 6.57792,14.9642748 6.8463,14.7409466 L9.15822,12.8226565 C9.40056,12.6216794 9.74574,12.6116641 9.999,12.7987786 L14.16888,15.8801221 C14.45598,16.0925191 14.86272,15.9323969 14.93472,15.5792977 L17.98938,0.624122137 C18.06798,0.238412214 17.69562,-0.0833587786 17.33478,0.0586870229 L0.31308,6.74210687 C-0.10698,6.90699237 -0.10332,7.51230534 0.31794,7.6729771 Z M5.81214,8.40983206 L13.91802,3.32848855 C14.0637,3.23743511 14.21358,3.43792366 14.08848,3.55603053 L7.39878,9.88519084 C7.16364,10.1079695 7.01196,10.4061069 6.969,10.7297099 L6.74112,12.4485496 C6.71094,12.6780458 6.3942,12.7008244 6.33198,12.4787176 L5.45556,9.34436641 C5.35518,8.98687023 5.50146,8.60500763 5.81214,8.40983206 Z" id="XMLID_497_"></path>
                            </g>
                        </g>
                    </g>
                </g>
            </g>
        </g>
    </g>
</svg>